<svg width="64" height="64" viewBox="0 0 64 64" fill="none" xmlns="http://www.w3.org/2000/svg">
  <!-- Background circle -->
  <circle cx="32" cy="32" r="32" fill="#2d2d2d"/>
  
  <!-- Needle -->
  <path d="M32 12 L32 42" stroke="#b8aa99" stroke-width="2" stroke-linecap="round"/>
  
  <!-- Needle eye -->
  <ellipse cx="32" cy="16" rx="3" ry="4" fill="none" stroke="#b8aa99" stroke-width="1.5"/>
  
  <!-- Thread curve - decorative embroidery pattern -->
  <path d="M20 28 Q26 24 32 28 Q38 32 44 28" stroke="#b8aa99" stroke-width="2" fill="none" stroke-linecap="round"/>
  <path d="M20 36 Q26 32 32 36 Q38 40 44 36" stroke="#b8aa99" stroke-width="2" fill="none" stroke-linecap="round"/>
  <path d="M20 44 Q26 40 32 44 Q38 48 44 44" stroke="#b8aa99" stroke-width="2" fill="none" stroke-linecap="round"/>
  
  <!-- Decorative dots -->
  <circle cx="20" cy="28" r="1.5" fill="#b8aa99"/>
  <circle cx="32" cy="28" r="1.5" fill="#b8aa99"/>
  <circle cx="44" cy="28" r="1.5" fill="#b8aa99"/>
  <circle cx="20" cy="36" r="1.5" fill="#b8aa99"/>
  <circle cx="32" cy="36" r="1.5" fill="#b8aa99"/>
  <circle cx="44" cy="36" r="1.5" fill="#b8aa99"/>
  <circle cx="20" cy="44" r="1.5" fill="#b8aa99"/>
  <circle cx="32" cy="44" r="1.5" fill="#b8aa99"/>
  <circle cx="44" cy="44" r="1.5" fill="#b8aa99"/>
</svg>
